<svg width="155" height="39" viewBox="0 0 155 39" fill="none" xmlns="http://www.w3.org/2000/svg">
<path d="M1 1V38.4286" stroke="#2D2D2D" stroke-width="0.467857"/>
<path d="M24.3928 1V38.4286" stroke="#2D2D2D" stroke-width="0.467857"/>
<path d="M1 1H24.3929" stroke="#2D2D2D" stroke-width="0.467857"/>
<path d="M24.1589 1.23389H1.23389V38.4285H24.1589V1.23389Z" fill="white"/>
<path d="M9.88911 3.33923H3.80697C3.54858 3.33923 3.33911 3.5487 3.33911 3.80709V9.88923C3.33911 10.1476 3.54858 10.3571 3.80697 10.3571H9.88911C10.1475 10.3571 10.357 10.1476 10.357 9.88923V3.80709C10.357 3.5487 10.1475 3.33923 9.88911 3.33923Z" fill="#9B2D22"/>
<path d="M21.5856 3.33923H15.5035C15.2451 3.33923 15.0356 3.5487 15.0356 3.80709V9.88923C15.0356 10.1476 15.2451 10.3571 15.5035 10.3571H21.5856C21.844 10.3571 22.0535 10.1476 22.0535 9.88923V3.80709C22.0535 3.5487 21.844 3.33923 21.5856 3.33923Z" fill="#009688"/>
<path d="M9.88911 12.6964H3.80697C3.54858 12.6964 3.33911 12.9059 3.33911 13.1643V19.2464C3.33911 19.5048 3.54858 19.7143 3.80697 19.7143H9.88911C10.1475 19.7143 10.357 19.5048 10.357 19.2464V13.1643C10.357 12.9059 10.1475 12.6964 9.88911 12.6964Z" fill="#C9A749"/>
<path d="M21.5856 12.6964H15.5035C15.2451 12.6964 15.0356 12.9059 15.0356 13.1643V19.2464C15.0356 19.5048 15.2451 19.7143 15.5035 19.7143H21.5856C21.844 19.7143 22.0535 19.5048 22.0535 19.2464V13.1643C22.0535 12.9059 21.844 12.6964 21.5856 12.6964Z" fill="#8B9C52"/>
<path d="M9.88911 22.0536H3.80697C3.54858 22.0536 3.33911 22.2631 3.33911 22.5214V28.6036C3.33911 28.862 3.54858 29.0714 3.80697 29.0714H9.88911C10.1475 29.0714 10.357 28.862 10.357 28.6036V22.5214C10.357 22.2631 10.1475 22.0536 9.88911 22.0536Z" fill="#E7D7A1"/>
<path d="M21.5856 22.0536H15.5035C15.2451 22.0536 15.0356 22.2631 15.0356 22.5214V28.6036C15.0356 28.862 15.2451 29.0714 15.5035 29.0714H21.5856C21.844 29.0714 22.0535 28.862 22.0535 28.6036V22.5214C22.0535 22.2631 21.844 22.0536 21.5856 22.0536Z" fill="#9B2D22"/>
<path d="M10.3572 6.84827C11.5268 6.84827 13.8661 6.84827 15.0357 6.84827" stroke="#2D2D2D" stroke-width="0.350893"/>
<path d="M10.3572 16.2053C11.5268 16.2053 13.8661 16.2053 15.0357 16.2053" stroke="#2D2D2D" stroke-width="0.350893"/>
<path d="M10.3572 25.5625C11.5268 25.5625 13.8661 25.5625 15.0357 25.5625" stroke="#2D2D2D" stroke-width="0.350893"/>
<path d="M6.84814 10.3572C6.84814 11.5268 6.84814 11.5268 6.84814 12.6965" stroke="#2D2D2D" stroke-width="0.350893"/>
<path d="M18.5447 10.3572C18.5447 11.5268 18.5447 11.5268 18.5447 12.6965" stroke="#2D2D2D" stroke-width="0.350893"/>
<path d="M6.84814 19.7142C6.84814 20.8839 6.84814 20.8839 6.84814 22.0535" stroke="#2D2D2D" stroke-width="0.350893"/>
<path d="M18.5447 19.7142C18.5447 20.8839 18.5447 20.8839 18.5447 22.0535" stroke="#2D2D2D" stroke-width="0.350893"/>
<path d="M39.5374 25.5297C38.6741 25.5297 37.8661 25.3913 37.1135 25.1146C36.3609 24.8324 35.7052 24.4257 35.1462 23.8944C34.5984 23.3742 34.1667 22.7323 33.8513 21.9686C33.5359 21.1994 33.3782 20.3555 33.3782 19.4369C33.3782 18.5238 33.5359 17.6799 33.8513 16.9052C34.1723 16.1249 34.6205 15.4497 35.196 14.8798C35.7605 14.3208 36.4384 13.8892 37.2297 13.5848C38.0211 13.2749 38.8678 13.12 39.7698 13.12C40.4228 13.12 41.0177 13.2002 41.5544 13.3607C42.0912 13.5157 42.545 13.6927 42.9158 13.892L43.4304 13.4354H44.1526L44.2273 17.7352H43.4968C43.0818 16.4237 42.5837 15.4608 42.0027 14.8466C41.4216 14.2323 40.7133 13.9252 39.8777 13.9252C38.8373 13.9252 38.046 14.3845 37.5037 15.3031C36.9613 16.2162 36.6902 17.5 36.6902 19.1547C36.6902 20.0899 36.7815 20.8895 36.9641 21.5536C37.1523 22.2121 37.3958 22.7434 37.6946 23.1473C38.0155 23.5679 38.3946 23.8778 38.8318 24.077C39.269 24.2707 39.7532 24.3676 40.2844 24.3676C41.0592 24.3676 41.7481 24.1573 42.3513 23.7367C42.96 23.3161 43.5134 22.6797 44.0115 21.8275L44.7253 22.2592C44.4874 22.7461 44.2162 23.1833 43.9119 23.5707C43.6075 23.9525 43.2561 24.2818 42.8577 24.5585C42.4205 24.8628 41.9363 25.1008 41.405 25.2723C40.8793 25.4439 40.2568 25.5297 39.5374 25.5297ZM53.9143 17.9594C54.3238 18.3412 54.6365 18.7977 54.8523 19.329C55.0681 19.8602 55.176 20.4358 55.176 21.0555C55.176 21.6698 55.0681 22.2509 54.8523 22.7987C54.642 23.341 54.3321 23.8059 53.9226 24.1932C53.4854 24.6083 52.9625 24.9265 52.3538 25.1478C51.7506 25.3692 51.0588 25.4799 50.2786 25.4799C49.6034 25.4799 48.9809 25.383 48.4109 25.1893C47.8464 24.9956 47.3456 24.7051 46.9084 24.3177C46.4879 23.947 46.1558 23.4904 45.9124 22.9481C45.6689 22.4003 45.5471 21.7888 45.5471 21.1136C45.5471 20.4496 45.6523 19.8602 45.8625 19.3456C46.0784 18.8254 46.3993 18.3633 46.8254 17.9594C47.2349 17.572 47.7385 17.2732 48.3362 17.0629C48.9394 16.847 49.6117 16.7391 50.3533 16.7391C51.128 16.7391 51.8087 16.847 52.3953 17.0629C52.9874 17.2732 53.4937 17.572 53.9143 17.9594ZM51.7893 23.7118C51.9111 23.4019 51.9996 23.0256 52.0549 22.5829C52.1158 22.1402 52.1462 21.6255 52.1462 21.0389C52.1462 20.6516 52.1186 20.2089 52.0632 19.7108C52.0079 19.2128 51.9249 18.8199 51.8142 18.5321C51.6814 18.1835 51.496 17.9095 51.2581 17.7103C51.0256 17.5111 50.7296 17.4115 50.3699 17.4115C49.977 17.4115 49.6615 17.5194 49.4236 17.7352C49.1912 17.951 49.0113 18.2305 48.884 18.5736C48.7678 18.889 48.6876 19.2598 48.6433 19.6859C48.599 20.1065 48.5769 20.5464 48.5769 21.0057C48.5769 21.6089 48.5963 22.1097 48.635 22.5082C48.6737 22.9011 48.7678 23.2968 48.9172 23.6952C49.0445 24.0383 49.2271 24.3094 49.4651 24.5087C49.703 24.7079 50.0046 24.8075 50.3699 24.8075C50.7019 24.8075 50.9869 24.7162 51.2249 24.5336C51.4628 24.3454 51.651 24.0715 51.7893 23.7118ZM72.7405 25.2142H67.7932V24.6083C67.915 24.5917 68.0422 24.5778 68.175 24.5668C68.3079 24.5557 68.4185 24.528 68.5071 24.4838C68.6288 24.4284 68.7063 24.3371 68.7395 24.2098C68.7727 24.077 68.7893 23.9082 68.7893 23.7035V19.827C68.7893 19.257 68.6869 18.8309 68.4822 18.5487C68.283 18.2609 67.9952 18.1171 67.6189 18.1171C67.3809 18.1171 67.1679 18.1558 66.9797 18.2333C66.7971 18.3052 66.6283 18.3965 66.4734 18.5072C66.3129 18.6234 66.1884 18.7396 66.0999 18.8558C66.0113 18.972 65.9366 19.0717 65.8757 19.1547V23.6122C65.8757 23.8114 65.8979 23.9747 65.9421 24.1019C65.9919 24.2237 66.0805 24.3205 66.2078 24.3925C66.2963 24.4423 66.3959 24.4865 66.5066 24.5253C66.6228 24.564 66.7445 24.5917 66.8718 24.6083V25.2142H62.1321V24.6083C62.2372 24.5972 62.3645 24.5834 62.5139 24.5668C62.6633 24.5502 62.774 24.5225 62.8459 24.4838C62.9622 24.4229 63.0369 24.3344 63.0701 24.2181C63.1088 24.1019 63.1282 23.9304 63.1282 23.7035V19.827C63.1282 19.257 63.0258 18.8309 62.821 18.5487C62.6218 18.2609 62.3341 18.1171 61.9578 18.1171C61.7198 18.1171 61.5068 18.1558 61.3186 18.2333C61.136 18.3052 60.9672 18.3965 60.8123 18.5072C60.6518 18.6234 60.5273 18.7396 60.4387 18.8558C60.3502 18.972 60.2755 19.0717 60.2146 19.1547V23.6122C60.2146 23.8059 60.2395 23.9663 60.2893 24.0936C60.3391 24.2209 60.4277 24.3205 60.5549 24.3925C60.6435 24.4423 60.7431 24.4865 60.8538 24.5253C60.97 24.564 61.0917 24.5917 61.219 24.6083V25.2142H56.2468V24.6083C56.3907 24.5972 56.5318 24.5834 56.6702 24.5668C56.8085 24.5502 56.9275 24.5225 57.0271 24.4838C57.2042 24.4174 57.3259 24.3233 57.3923 24.2015C57.4587 24.0743 57.4919 23.9082 57.4919 23.7035V18.8724C57.4919 18.6954 57.4449 18.5238 57.3508 18.3578C57.2568 18.1862 57.1433 18.0534 57.0105 17.9594C56.9109 17.8929 56.7836 17.8376 56.6287 17.7933C56.4792 17.7491 56.3132 17.7186 56.1306 17.702V17.0961L60.0901 16.8802L60.2146 17.0048V18.1752H60.2478C60.4028 18.0368 60.5854 17.8736 60.7957 17.6854C61.0115 17.4917 61.2135 17.3368 61.4016 17.2206C61.6064 17.0878 61.8692 16.9771 62.1902 16.8885C62.5111 16.8 62.8625 16.7557 63.2444 16.7557C63.8752 16.7557 64.401 16.8941 64.8215 17.1708C65.2476 17.4419 65.5492 17.8044 65.7263 18.2582H65.801C65.9615 18.1088 66.158 17.9344 66.3904 17.7352C66.6228 17.5305 66.8359 17.3672 67.0295 17.2455C67.2454 17.1071 67.5193 16.9909 67.8513 16.8969C68.1889 16.8028 68.5486 16.7557 68.9304 16.7557C69.766 16.7557 70.408 17.002 70.8562 17.4945C71.31 17.987 71.5369 18.6871 71.5369 19.5946V23.6288C71.5369 23.8335 71.5673 23.9996 71.6282 24.1268C71.689 24.2486 71.7997 24.3427 71.9602 24.4091C72.0487 24.4478 72.1567 24.4865 72.2839 24.5253C72.4167 24.564 72.5689 24.5917 72.7405 24.6083V25.2142ZM90.0061 25.2142H85.0588V24.6083C85.1806 24.5917 85.3079 24.5778 85.4407 24.5668C85.5735 24.5557 85.6842 24.528 85.7727 24.4838C85.8944 24.4284 85.9719 24.3371 86.0051 24.2098C86.0383 24.077 86.0549 23.9082 86.0549 23.7035V19.827C86.0549 19.257 85.9526 18.8309 85.7478 18.5487C85.5486 18.2609 85.2608 18.1171 84.8845 18.1171C84.6466 18.1171 84.4335 18.1558 84.2454 18.2333C84.0627 18.3052 83.894 18.3965 83.739 18.5072C83.5785 18.6234 83.454 18.7396 83.3655 18.8558C83.2769 18.972 83.2022 19.0717 83.1414 19.1547V23.6122C83.1414 23.8114 83.1635 23.9747 83.2078 24.1019C83.2576 24.2237 83.3461 24.3205 83.4734 24.3925C83.5619 24.4423 83.6615 24.4865 83.7722 24.5253C83.8884 24.564 84.0102 24.5917 84.1375 24.6083V25.2142H79.3977V24.6083C79.5028 24.5972 79.6301 24.5834 79.7795 24.5668C79.929 24.5502 80.0396 24.5225 80.1116 24.4838C80.2278 24.4229 80.3025 24.3344 80.3357 24.2181C80.3744 24.1019 80.3938 23.9304 80.3938 23.7035V19.827C80.3938 19.257 80.2914 18.8309 80.0867 18.5487C79.8875 18.2609 79.5997 18.1171 79.2234 18.1171C78.9854 18.1171 78.7724 18.1558 78.5842 18.2333C78.4016 18.3052 78.2328 18.3965 78.0779 18.5072C77.9174 18.6234 77.7929 18.7396 77.7043 18.8558C77.6158 18.972 77.5411 19.0717 77.4802 19.1547V23.6122C77.4802 23.8059 77.5051 23.9663 77.5549 24.0936C77.6047 24.2209 77.6933 24.3205 77.8206 24.3925C77.9091 24.4423 78.0087 24.4865 78.1194 24.5253C78.2356 24.564 78.3573 24.5917 78.4846 24.6083V25.2142H73.5125V24.6083C73.6563 24.5972 73.7974 24.5834 73.9358 24.5668C74.0741 24.5502 74.1931 24.5225 74.2927 24.4838C74.4698 24.4174 74.5916 24.3233 74.658 24.2015C74.7244 24.0743 74.7576 23.9082 74.7576 23.7035V18.8724C74.7576 18.6954 74.7105 18.5238 74.6165 18.3578C74.5224 18.1862 74.4089 18.0534 74.2761 17.9594C74.1765 17.8929 74.0492 17.8376 73.8943 17.7933C73.7449 17.7491 73.5789 17.7186 73.3962 17.702V17.0961L77.3557 16.8802L77.4802 17.0048V18.1752H77.5134C77.6684 18.0368 77.851 17.8736 78.0613 17.6854C78.2771 17.4917 78.4791 17.3368 78.6672 17.2206C78.872 17.0878 79.1348 16.9771 79.4558 16.8885C79.7768 16.8 80.1282 16.7557 80.51 16.7557C81.1409 16.7557 81.6666 16.8941 82.0872 17.1708C82.5133 17.4419 82.8149 17.8044 82.9919 18.2582H83.0667C83.2271 18.1088 83.4236 17.9344 83.656 17.7352C83.8884 17.5305 84.1015 17.3672 84.2952 17.2455C84.511 17.1071 84.7849 16.9909 85.1169 16.8969C85.4545 16.8028 85.8142 16.7557 86.196 16.7557C87.0317 16.7557 87.6736 17.002 88.1218 17.4945C88.5756 17.987 88.8025 18.6871 88.8025 19.5946V23.6288C88.8025 23.8335 88.8329 23.9996 88.8938 24.1268C88.9547 24.2486 89.0653 24.3427 89.2258 24.4091C89.3144 24.4478 89.4223 24.4865 89.5496 24.5253C89.6824 24.564 89.8346 24.5917 90.0061 24.6083V25.2142ZM99.2532 17.9594C99.6627 18.3412 99.9753 18.7977 100.191 19.329C100.407 19.8602 100.515 20.4358 100.515 21.0555C100.515 21.6698 100.407 22.2509 100.191 22.7987C99.9809 23.341 99.671 23.8059 99.2615 24.1932C98.8243 24.6083 98.3014 24.9265 97.6926 25.1478C97.0894 25.3692 96.3977 25.4799 95.6174 25.4799C94.9423 25.4799 94.3197 25.383 93.7498 25.1893C93.1853 24.9956 92.6845 24.7051 92.2473 24.3177C91.8267 23.947 91.4947 23.4904 91.2512 22.9481C91.0077 22.4003 90.886 21.7888 90.886 21.1136C90.886 20.4496 90.9911 19.8602 91.2014 19.3456C91.4172 18.8254 91.7382 18.3633 92.1643 17.9594C92.5738 17.572 93.0774 17.2732 93.675 17.0629C94.2782 16.847 94.9506 16.7391 95.6921 16.7391C96.4669 16.7391 97.1475 16.847 97.7341 17.0629C98.3263 17.2732 98.8326 17.572 99.2532 17.9594ZM97.1282 23.7118C97.2499 23.4019 97.3385 23.0256 97.3938 22.5829C97.4547 22.1402 97.4851 21.6255 97.4851 21.0389C97.4851 20.6516 97.4574 20.2089 97.4021 19.7108C97.3468 19.2128 97.2638 18.8199 97.1531 18.5321C97.0203 18.1835 96.8349 17.9095 96.5969 17.7103C96.3645 17.5111 96.0684 17.4115 95.7087 17.4115C95.3158 17.4115 95.0004 17.5194 94.7625 17.7352C94.53 17.951 94.3502 18.2305 94.2229 18.5736C94.1067 18.889 94.0264 19.2598 93.9822 19.6859C93.9379 20.1065 93.9158 20.5464 93.9158 21.0057C93.9158 21.6089 93.9351 22.1097 93.9739 22.5082C94.0126 22.9011 94.1067 23.2968 94.2561 23.6952C94.3834 24.0383 94.566 24.3094 94.804 24.5087C95.0419 24.7079 95.3435 24.8075 95.7087 24.8075C96.0408 24.8075 96.3258 24.7162 96.5637 24.5336C96.8017 24.3454 96.9898 24.0715 97.1282 23.7118ZM112.543 25.2142H107.546V24.6083C107.651 24.5972 107.778 24.5834 107.927 24.5668C108.077 24.5502 108.19 24.5225 108.268 24.4838C108.384 24.4229 108.467 24.3344 108.517 24.2181C108.567 24.1019 108.592 23.9304 108.592 23.7035V19.8187C108.592 19.2543 108.486 18.8309 108.276 18.5487C108.071 18.2609 107.767 18.1171 107.363 18.1171C107.142 18.1171 106.934 18.1503 106.74 18.2167C106.552 18.2831 106.367 18.3799 106.184 18.5072C106.024 18.6179 105.894 18.7313 105.794 18.8475C105.7 18.9637 105.62 19.0661 105.553 19.1547V23.6122C105.553 23.8059 105.581 23.9691 105.636 24.1019C105.692 24.2292 105.783 24.326 105.91 24.3925C105.999 24.4423 106.11 24.4865 106.242 24.5253C106.375 24.564 106.505 24.5917 106.633 24.6083V25.2142H101.586V24.6083C101.724 24.5972 101.862 24.5834 102.001 24.5668C102.145 24.5446 102.266 24.517 102.366 24.4838C102.543 24.4229 102.665 24.3288 102.731 24.2015C102.798 24.0743 102.831 23.9082 102.831 23.7035V18.8724C102.831 18.7009 102.787 18.5321 102.698 18.3661C102.609 18.2001 102.493 18.0645 102.349 17.9594C102.25 17.8929 102.122 17.8376 101.968 17.7933C101.818 17.7491 101.652 17.7186 101.469 17.702V17.0961L105.429 16.8802L105.553 17.0048V18.2084H105.587C105.742 18.07 105.93 17.904 106.151 17.7103C106.372 17.5166 106.577 17.3589 106.765 17.2372C106.97 17.1044 107.239 16.9909 107.571 16.8969C107.903 16.8028 108.257 16.7557 108.633 16.7557C109.535 16.7557 110.21 17.0131 110.658 17.5277C111.112 18.0368 111.339 18.7147 111.339 19.5614V23.6288C111.339 23.8335 111.37 23.9968 111.43 24.1185C111.491 24.2403 111.605 24.3371 111.771 24.4091C111.859 24.4478 111.967 24.4865 112.094 24.5253C112.227 24.564 112.377 24.5917 112.543 24.6083V25.2142ZM124.496 13.4354L123.815 16.3822H123.193C123.17 15.7901 123.043 15.2782 122.811 14.8466C122.584 14.4094 122.304 14.1659 121.972 14.1161C121.801 14.094 121.599 14.0774 121.366 14.0663C121.14 14.0552 120.877 14.0497 120.578 14.0497H118.561L117.457 18.8392H118.81C119.131 18.8392 119.424 18.806 119.69 18.7396C119.955 18.6677 120.213 18.521 120.462 18.2997C120.589 18.1835 120.73 17.9953 120.885 17.7352C121.045 17.4751 121.173 17.1984 121.267 16.9052H121.898L120.835 21.5287H120.204C120.21 21.4623 120.215 21.3848 120.221 21.2963C120.232 21.2077 120.238 21.1109 120.238 21.0057C120.238 20.8508 120.226 20.6737 120.204 20.4745C120.182 20.2753 120.141 20.1259 120.08 20.0262C119.93 19.7994 119.737 19.6499 119.499 19.578C119.261 19.5061 118.979 19.4701 118.652 19.4701H117.299L116.353 23.5956C116.342 23.6399 116.333 23.6869 116.328 23.7367C116.322 23.781 116.32 23.8252 116.32 23.8695C116.32 23.9913 116.344 24.0992 116.394 24.1932C116.444 24.2818 116.53 24.362 116.652 24.434C116.74 24.4782 116.914 24.5253 117.175 24.5751C117.435 24.6249 117.648 24.6553 117.814 24.6664L117.681 25.2142H112.551L112.684 24.6664C112.855 24.6553 113.077 24.6387 113.348 24.6166C113.619 24.5889 113.804 24.5557 113.904 24.517C114.098 24.4395 114.244 24.3316 114.344 24.1932C114.444 24.0494 114.516 23.8806 114.56 23.6869L116.544 15.1039C116.555 15.0485 116.563 14.996 116.569 14.9462C116.58 14.8908 116.585 14.8355 116.585 14.7802C116.585 14.6695 116.563 14.5754 116.519 14.4979C116.48 14.4149 116.394 14.3402 116.261 14.2738C116.14 14.2074 115.96 14.1465 115.722 14.0912C115.484 14.0358 115.285 13.9999 115.124 13.9833L115.257 13.4354H124.496ZM128.015 12.4891L125.699 22.4833C125.65 22.6936 125.603 22.9038 125.558 23.1141C125.514 23.3244 125.492 23.496 125.492 23.6288C125.492 23.9442 125.561 24.16 125.699 24.2762C125.843 24.3925 126.073 24.4506 126.388 24.4506C126.499 24.4506 126.662 24.4367 126.878 24.4091C127.1 24.3814 127.266 24.3482 127.376 24.3094L127.252 24.8407C126.754 25.0399 126.369 25.181 126.098 25.264C125.832 25.347 125.531 25.3885 125.193 25.3885C124.75 25.3885 124.413 25.2751 124.18 25.0482C123.954 24.8158 123.84 24.5308 123.84 24.1932C123.84 24.066 123.851 23.9331 123.873 23.7948C123.901 23.6565 123.937 23.4821 123.981 23.2719L125.998 14.5311C126.037 14.3596 126.062 14.2406 126.073 14.1742C126.09 14.1078 126.098 14.0248 126.098 13.9252C126.098 13.726 126.065 13.5738 125.998 13.4686C125.932 13.358 125.838 13.2749 125.716 13.2196C125.6 13.1698 125.453 13.1366 125.276 13.12C125.099 13.1034 124.919 13.084 124.737 13.0619L124.853 12.5555L127.932 12.3646L128.015 12.4891ZM136.457 20.101C136.457 20.7539 136.347 21.4069 136.125 22.0599C135.904 22.7129 135.583 23.2857 135.162 23.7782C134.736 24.2873 134.222 24.6968 133.618 25.0067C133.021 25.3111 132.326 25.4633 131.535 25.4633C130.616 25.4633 129.869 25.1672 129.294 24.5751C128.724 23.983 128.439 23.1861 128.439 22.1844C128.439 21.4484 128.56 20.7622 128.804 20.1259C129.047 19.4895 129.374 18.9305 129.783 18.4491C130.198 17.9677 130.71 17.5803 131.319 17.287C131.933 16.9882 132.597 16.8387 133.311 16.8387C134.296 16.8387 135.066 17.1403 135.619 17.7435C136.178 18.3412 136.457 19.127 136.457 20.101ZM134.764 19.7855C134.764 18.9997 134.623 18.4104 134.341 18.0175C134.064 17.6246 133.663 17.4281 133.137 17.4281C132.678 17.4281 132.243 17.5692 131.834 17.8514C131.43 18.1337 131.081 18.593 130.788 19.2294C130.561 19.7108 130.395 20.2476 130.29 20.8397C130.185 21.4263 130.132 21.9686 130.132 22.4667C130.132 23.258 130.268 23.8584 130.539 24.2679C130.816 24.6719 131.231 24.8739 131.784 24.8739C132.276 24.8739 132.714 24.719 133.095 24.4091C133.477 24.0992 133.787 23.7063 134.025 23.2303C134.263 22.7655 134.446 22.2343 134.573 21.6366C134.7 21.0334 134.764 20.4164 134.764 19.7855ZM145.588 20.101C145.588 20.7539 145.477 21.4069 145.256 22.0599C145.035 22.7129 144.714 23.2857 144.293 23.7782C143.867 24.2873 143.352 24.6968 142.749 25.0067C142.152 25.3111 141.457 25.4633 140.666 25.4633C139.747 25.4633 139 25.1672 138.425 24.5751C137.855 23.983 137.57 23.1861 137.57 22.1844C137.57 21.4484 137.691 20.7622 137.935 20.1259C138.178 19.4895 138.505 18.9305 138.914 18.4491C139.329 17.9677 139.841 17.5803 140.45 17.287C141.064 16.9882 141.728 16.8387 142.442 16.8387C143.427 16.8387 144.196 17.1403 144.75 17.7435C145.309 18.3412 145.588 19.127 145.588 20.101ZM143.895 19.7855C143.895 18.9997 143.754 18.4104 143.471 18.0175C143.195 17.6246 142.794 17.4281 142.268 17.4281C141.809 17.4281 141.374 17.5692 140.965 17.8514C140.561 18.1337 140.212 18.593 139.919 19.2294C139.692 19.7108 139.526 20.2476 139.421 20.8397C139.316 21.4263 139.263 21.9686 139.263 22.4667C139.263 23.258 139.399 23.8584 139.67 24.2679C139.946 24.6719 140.361 24.8739 140.915 24.8739C141.407 24.8739 141.844 24.719 142.226 24.4091C142.608 24.0992 142.918 23.7063 143.156 23.2303C143.394 22.7655 143.577 22.2343 143.704 21.6366C143.831 21.0334 143.895 20.4164 143.895 19.7855ZM154.063 18.1918C154.063 18.3467 154.041 18.5183 153.997 18.7064C153.953 18.889 153.889 19.0412 153.806 19.163C153.706 19.3124 153.596 19.4286 153.474 19.5116C153.358 19.5891 153.189 19.6278 152.968 19.6278C152.669 19.6278 152.445 19.5531 152.295 19.4037C152.146 19.2543 152.071 19.0883 152.071 18.9056C152.071 18.7341 152.113 18.5432 152.196 18.3329C152.279 18.1171 152.364 17.904 152.453 17.6937C152.386 17.6937 152.276 17.7131 152.121 17.7518C151.971 17.785 151.789 17.8542 151.573 17.9594C151.357 18.0645 151.111 18.2222 150.834 18.4325C150.563 18.6428 150.273 18.9222 149.963 19.2709L148.626 25.2142H147.082L148.294 19.8353C148.322 19.7025 148.361 19.5033 148.41 19.2377C148.466 18.972 148.493 18.7756 148.493 18.6483C148.493 18.3384 148.441 18.1309 148.336 18.0258C148.231 17.9206 148.02 17.868 147.705 17.868C147.583 17.868 147.428 17.8902 147.24 17.9344C147.052 17.9732 146.905 18.0064 146.8 18.0341L146.925 17.5028C147.356 17.3091 147.738 17.1652 148.07 17.0712C148.402 16.9771 148.687 16.9301 148.925 16.9301C149.368 16.9301 149.683 17.0518 149.871 17.2953C150.059 17.5332 150.154 17.8929 150.154 18.3744H150.203C150.862 17.8044 151.36 17.406 151.698 17.1791C152.041 16.9522 152.398 16.8387 152.768 16.8387C152.945 16.8387 153.117 16.8609 153.283 16.9052C153.449 16.9494 153.59 17.0241 153.706 17.1293C153.828 17.2455 153.917 17.3811 153.972 17.536C154.033 17.6854 154.063 17.904 154.063 18.1918Z" fill="#2D2D2D"/>
</svg>
