<svg width="437" height="108" viewBox="0 0 437 108" fill="none" xmlns="http://www.w3.org/2000/svg">
<path d="M233.81 15.1875V36.6952H226.759V0.471659H233.527V6.36741H233.975C234.808 4.44933 236.113 2.90857 237.89 1.74514C239.682 0.581714 241.938 0 244.658 0C247.127 0 249.288 0.518826 251.143 1.55648C252.999 2.57841 254.437 4.10344 255.459 6.13158C256.481 8.15972 256.992 10.6674 256.992 13.6546V36.6952H249.941V14.5035C249.941 11.878 249.257 9.82625 247.889 8.34838C246.521 6.85479 244.642 6.108 242.253 6.108C240.618 6.108 239.163 6.46174 237.89 7.16923C236.632 7.87672 235.634 8.91437 234.895 10.2822C234.172 11.6343 233.81 13.2694 233.81 15.1875Z" fill="#009688"/>
<path d="M203.995 37.4262C200.599 37.4262 197.635 36.648 195.104 35.0915C192.573 33.535 190.608 31.3575 189.208 28.559C187.809 25.7605 187.109 22.4903 187.109 18.7485C187.109 14.9909 187.809 11.705 189.208 8.89079C190.608 6.07655 192.573 3.89119 195.104 2.33472C197.635 0.778239 200.599 0 203.995 0C207.391 0 210.354 0.778239 212.886 2.33472C215.417 3.89119 217.382 6.07655 218.781 8.89079C220.181 11.705 220.88 14.9909 220.88 18.7485C220.88 22.4903 220.181 25.7605 218.781 28.559C217.382 31.3575 215.417 33.535 212.886 35.0915C210.354 36.648 207.391 37.4262 203.995 37.4262ZM204.018 31.5069C206.219 31.5069 208.043 30.9252 209.49 29.7617C210.936 28.5983 212.005 27.0497 212.697 25.1159C213.404 23.1821 213.758 21.0518 213.758 18.7249C213.758 16.4138 213.404 14.2913 212.697 12.3575C212.005 10.408 210.936 8.84363 209.49 7.66447C208.043 6.48532 206.219 5.89575 204.018 5.89575C201.802 5.89575 199.962 6.48532 198.5 7.66447C197.054 8.84363 195.977 10.408 195.269 12.3575C194.577 14.2913 194.231 16.4138 194.231 18.7249C194.231 21.0518 194.577 23.1821 195.269 25.1159C195.977 27.0497 197.054 28.5983 198.5 29.7617C199.962 30.9252 201.802 31.5069 204.018 31.5069Z" fill="#009688"/>
<path d="M132.037 36.6952V0.471659H138.805V6.36741H139.253C140.008 4.37072 141.242 2.81424 142.956 1.69798C144.669 0.565992 146.721 0 149.111 0C151.532 0 153.56 0.565992 155.195 1.69798C156.846 2.82996 158.065 4.38644 158.851 6.36741H159.228C160.093 4.4336 161.468 2.89285 163.355 1.74514C165.242 0.581714 167.49 0 170.1 0C173.386 0 176.066 1.02979 178.142 3.08937C180.233 5.14895 181.278 8.25405 181.278 12.4047V36.6952H174.227V13.065C174.227 10.6124 173.559 8.83576 172.222 7.73522C170.886 6.63468 169.29 6.08441 167.435 6.08441C165.139 6.08441 163.355 6.7919 162.082 8.20688C160.808 9.60614 160.171 11.4063 160.171 13.6074V36.6952H153.144V12.6169C153.144 10.6517 152.53 9.07159 151.304 7.87672C150.078 6.68185 148.482 6.08441 146.517 6.08441C145.18 6.08441 143.946 6.43816 142.814 7.14565C141.698 7.83742 140.794 8.80432 140.102 10.0464C139.426 11.2884 139.088 12.727 139.088 14.362V36.6952H132.037Z" fill="#009688"/>
<path d="M75.337 36.6952V0.471659H82.1053V6.36741H82.5534C83.3081 4.37072 84.5422 2.81424 86.2559 1.69798C87.9696 0.565992 90.0214 0 92.4111 0C94.8323 0 96.8604 0.565992 98.4955 1.69798C100.146 2.82996 101.365 4.38644 102.151 6.36741H102.528C103.393 4.4336 104.769 2.89285 106.655 1.74514C108.542 0.581714 110.79 0 113.4 0C116.686 0 119.366 1.02979 121.442 3.08937C123.533 5.14895 124.578 8.25405 124.578 12.4047V36.6952H117.527V13.065C117.527 10.6124 116.859 8.83576 115.522 7.73522C114.186 6.63468 112.59 6.08441 110.735 6.08441C108.44 6.08441 106.655 6.7919 105.382 8.20688C104.108 9.60614 103.472 11.4063 103.472 13.6074V36.6952H96.4438V12.6169C96.4438 10.6517 95.8306 9.07159 94.6043 7.87672C93.378 6.68185 91.7822 6.08441 89.817 6.08441C88.4806 6.08441 87.2464 6.43816 86.1144 7.14565C84.9982 7.83742 84.0942 8.80432 83.4024 10.0464C82.7263 11.2884 82.3883 12.727 82.3883 14.362V36.6952H75.337Z" fill="#009688"/>
<path d="M52.5728 37.4262C49.1768 37.4262 46.2132 36.648 43.682 35.0915C41.1507 33.535 39.1855 31.3575 37.7862 28.559C36.387 25.7605 35.6873 22.4903 35.6873 18.7485C35.6873 14.9909 36.387 11.705 37.7862 8.89079C39.1855 6.07655 41.1507 3.89119 43.682 2.33472C46.2132 0.778239 49.1768 0 52.5728 0C55.9687 0 58.9323 0.778239 61.4636 2.33472C63.9948 3.89119 65.9601 6.07655 67.3593 8.89079C68.7586 11.705 69.4582 14.9909 69.4582 18.7485C69.4582 22.4903 68.7586 25.7605 67.3593 28.559C65.9601 31.3575 63.9948 33.535 61.4636 35.0915C58.9323 36.648 55.9687 37.4262 52.5728 37.4262ZM52.5964 31.5069C54.7974 31.5069 56.6212 30.9252 58.0676 29.7617C59.514 28.5983 60.5831 27.0497 61.2749 25.1159C61.9824 23.1821 62.3361 21.0518 62.3361 18.7249C62.3361 16.4138 61.9824 14.2913 61.2749 12.3575C60.5831 10.408 59.514 8.84363 58.0676 7.66447C56.6212 6.48532 54.7974 5.89575 52.5964 5.89575C50.3796 5.89575 48.5401 6.48532 47.0779 7.66447C45.6315 8.84363 44.5546 10.408 43.8471 12.3575C43.1553 14.2913 42.8094 16.4138 42.8094 18.7249C42.8094 21.0518 43.1553 23.1821 43.8471 25.1159C44.5546 27.0497 45.6315 28.5983 47.0779 29.7617C48.5401 30.9252 50.3796 31.5069 52.5964 31.5069Z" fill="#009688"/>
<path d="M16.8854 37.4262C13.3794 37.4262 10.3608 36.6323 7.82956 35.0443C5.31404 33.4407 3.38023 31.2318 2.02814 28.4175C0.676046 25.6033 0 22.3803 0 18.7485C0 15.0695 0.691768 11.8229 2.0753 9.00871C3.45884 6.17875 5.40837 3.9698 7.92389 2.38188C10.4394 0.79396 13.403 0 16.8147 0C19.566 0 22.0187 0.510966 24.1726 1.5329C26.3265 2.5391 28.0638 3.95408 29.3844 5.77783C30.7208 7.60159 31.5148 9.73192 31.7663 12.1688H24.9037C24.5263 10.4709 23.6616 9.00871 22.3095 7.78239C20.9732 6.55607 19.1808 5.94292 16.9326 5.94292C14.9673 5.94292 13.2458 6.46174 11.7679 7.49939C10.3058 8.52132 9.16593 9.98347 8.34838 11.8858C7.53084 13.7725 7.12207 16.005 7.12207 18.5834C7.12207 21.2247 7.52298 23.5044 8.3248 25.4225C9.12662 27.3406 10.2586 28.8263 11.7208 29.8797C13.1986 30.933 14.9359 31.4597 16.9326 31.4597C18.269 31.4597 19.4796 31.216 20.5644 30.7287C21.6649 30.2255 22.5847 29.5102 23.3236 28.5826C24.0782 27.655 24.6049 26.5387 24.9037 25.2338H31.7663C31.5148 27.5764 30.7522 29.6674 29.4788 31.5069C28.2053 33.3464 26.4994 34.7928 24.3612 35.8462C22.2388 36.8995 19.7468 37.4262 16.8854 37.4262Z" fill="#009688"/>
<path d="M356.414 76.9422C356.414 77.5888 356.322 78.3046 356.137 79.0897C355.952 79.8517 355.687 80.4868 355.34 80.9948C354.925 81.6183 354.463 82.1032 353.955 82.4496C353.47 82.7728 352.766 82.9345 351.842 82.9345C350.595 82.9345 349.66 82.6227 349.036 81.9993C348.413 81.3758 348.101 80.683 348.101 79.921C348.101 79.2052 348.274 78.4085 348.621 77.531C348.967 76.6304 349.325 75.7414 349.694 74.8639C349.417 74.8639 348.955 74.9448 348.309 75.1064C347.685 75.2449 346.923 75.5336 346.023 75.9723C345.122 76.4111 344.095 77.0692 342.94 77.9467C341.809 78.8242 340.596 79.9903 339.303 81.4451L333.726 106.246H327.284L332.341 83.8004C332.456 83.2462 332.618 82.4149 332.826 81.3065C333.057 80.1981 333.172 79.3784 333.172 78.8472C333.172 77.5541 332.953 76.6882 332.514 76.2494C332.075 75.8107 331.198 75.5913 329.882 75.5913C329.374 75.5913 328.727 75.6837 327.942 75.8684C327.157 76.0301 326.545 76.1686 326.106 76.2841L326.626 74.0673C328.427 73.2591 330.02 72.6587 331.406 72.2661C332.791 71.8736 333.98 71.6773 334.973 71.6773C336.821 71.6773 338.137 72.1853 338.922 73.2013C339.707 74.1943 340.1 75.6952 340.1 77.7042H340.308C343.056 75.3258 345.134 73.6632 346.542 72.7164C347.974 71.7696 349.463 71.2963 351.011 71.2963C351.75 71.2963 352.465 71.3886 353.158 71.5734C353.851 71.7581 354.44 72.0698 354.925 72.5086C355.433 72.9935 355.802 73.5593 356.033 74.2058C356.287 74.8293 356.414 75.7414 356.414 76.9422Z" fill="#009688"/>
<path d="M322.468 84.9088C322.468 87.6336 322.006 90.3585 321.082 93.0833C320.159 95.8081 318.819 98.1981 317.064 100.253C315.286 102.378 313.139 104.086 310.622 105.38C308.128 106.65 305.23 107.285 301.928 107.285C298.094 107.285 294.977 106.049 292.576 103.578C290.197 101.108 289.008 97.7824 289.008 93.6028C289.008 90.5316 289.516 87.6683 290.532 85.0127C291.548 82.3572 292.91 80.0249 294.619 78.0159C296.351 76.007 298.487 74.3906 301.027 73.1667C303.59 71.9197 306.361 71.2963 309.34 71.2963C313.45 71.2963 316.66 72.5548 318.969 75.0718C321.302 77.5657 322.468 80.8447 322.468 84.9088ZM315.402 83.5926C315.402 80.3136 314.813 77.8543 313.635 76.2148C312.481 74.5753 310.806 73.7555 308.613 73.7555C306.696 73.7555 304.883 74.3444 303.175 75.522C301.489 76.6997 300.034 78.6163 298.81 81.2719C297.864 83.2809 297.171 85.5207 296.732 87.9916C296.293 90.4393 296.074 92.7023 296.074 94.7805C296.074 98.0826 296.64 100.588 297.771 102.297C298.926 103.983 300.658 104.825 302.967 104.825C305.022 104.825 306.846 104.179 308.44 102.886C310.033 101.593 311.326 99.9531 312.319 97.9672C313.312 96.0275 314.074 93.8107 314.605 91.3168C315.136 88.7998 315.402 86.225 315.402 83.5926Z" fill="#009688"/>
<path d="M285.786 84.9088C285.786 87.6336 285.324 90.3585 284.4 93.0833C283.476 95.8081 282.137 98.1981 280.382 100.253C278.604 102.378 276.456 104.086 273.939 105.38C271.446 106.65 268.548 107.285 265.245 107.285C261.412 107.285 258.295 106.049 255.893 103.578C253.515 101.108 252.326 97.7824 252.326 93.6028C252.326 90.5316 252.834 87.6683 253.85 85.0127C254.866 82.3572 256.228 80.0249 257.937 78.0159C259.669 76.007 261.805 74.3906 264.345 73.1667C266.908 71.9197 269.679 71.2963 272.658 71.2963C276.768 71.2963 279.978 72.5548 282.287 75.0718C284.619 77.5657 285.786 80.8447 285.786 84.9088ZM278.719 83.5926C278.719 80.3136 278.131 77.8543 276.953 76.2148C275.798 74.5753 274.124 73.7555 271.93 73.7555C270.014 73.7555 268.201 74.3444 266.492 75.522C264.807 76.6997 263.352 78.6163 262.128 81.2719C261.181 83.2809 260.489 85.5207 260.05 87.9916C259.611 90.4393 259.392 92.7023 259.392 94.7805C259.392 98.0826 259.957 100.588 261.089 102.297C262.244 103.983 263.975 104.825 266.285 104.825C268.34 104.825 270.164 104.179 271.757 102.886C273.351 101.593 274.644 99.9531 275.637 97.9672C276.63 96.0275 277.392 93.8107 277.923 91.3168C278.454 88.7998 278.719 86.225 278.719 83.5926Z" fill="#009688"/>
<path d="M251.978 53.1463L242.314 94.8499C242.106 95.7274 241.91 96.6048 241.725 97.4823C241.54 98.3598 241.448 99.0756 241.448 99.6298C241.448 100.946 241.737 101.847 242.314 102.332C242.914 102.817 243.873 103.059 245.189 103.059C245.651 103.059 246.332 103.001 247.232 102.886C248.156 102.77 248.849 102.632 249.311 102.47L248.791 104.687C246.713 105.518 245.108 106.107 243.976 106.453C242.868 106.8 241.61 106.973 240.201 106.973C238.354 106.973 236.945 106.5 235.975 105.553C235.028 104.583 234.555 103.394 234.555 101.985C234.555 101.454 234.601 100.9 234.694 100.323C234.809 99.7453 234.959 99.0179 235.144 98.1404L243.561 61.6671C243.722 60.9513 243.826 60.4548 243.873 60.1777C243.942 59.9006 243.976 59.5542 243.976 59.1386C243.976 58.3073 243.838 57.6722 243.561 57.2335C243.284 56.7717 242.891 56.4253 242.383 56.1944C241.898 55.9866 241.286 55.848 240.547 55.7787C239.808 55.7094 239.058 55.6286 238.296 55.5363L238.781 53.4234L251.631 52.6267L251.978 53.1463Z" fill="#009688"/>
<path d="M238.71 57.095L235.87 69.3914H233.272C233.18 66.9205 232.649 64.7846 231.679 62.9834C230.732 61.1592 229.566 60.1431 228.18 59.9353C227.464 59.8429 226.622 59.7737 225.652 59.7275C224.705 59.6813 223.608 59.6582 222.361 59.6582H213.944L209.337 79.6441H214.983C216.323 79.6441 217.547 79.5055 218.655 79.2284C219.763 78.9282 220.837 78.3163 221.876 77.3926C222.407 76.9077 222.996 76.1226 223.643 75.0373C224.312 73.952 224.844 72.7974 225.236 71.5735H227.869L223.435 90.8666H220.803C220.826 90.5895 220.849 90.2662 220.872 89.8968C220.918 89.5273 220.941 89.1232 220.941 88.6845C220.941 88.0379 220.895 87.299 220.803 86.4677C220.71 85.6364 220.537 85.0129 220.283 84.5972C219.659 83.6505 218.851 83.027 217.858 82.7268C216.865 82.4266 215.688 82.2765 214.325 82.2765H208.679L204.731 99.4914C204.685 99.6761 204.65 99.8724 204.627 100.08C204.604 100.265 204.592 100.45 204.592 100.634C204.592 101.142 204.696 101.593 204.904 101.985C205.112 102.355 205.47 102.69 205.978 102.99C206.347 103.175 207.074 103.371 208.16 103.579C209.245 103.786 210.134 103.913 210.827 103.96L210.273 106.246H188.867L189.421 103.96C190.137 103.913 191.06 103.844 192.192 103.752C193.323 103.636 194.097 103.498 194.513 103.336C195.321 103.013 195.933 102.563 196.348 101.985C196.764 101.385 197.064 100.681 197.249 99.8724L205.527 64.0572C205.574 63.8263 205.608 63.6069 205.631 63.3991C205.677 63.1681 205.701 62.9372 205.701 62.7063C205.701 62.2445 205.608 61.8519 205.423 61.5286C205.262 61.1823 204.904 60.8705 204.35 60.5934C203.842 60.3163 203.091 60.0623 202.098 59.8314C201.105 59.6005 200.274 59.4504 199.604 59.3811L200.159 57.095H238.71Z" fill="#009688"/>
<path fill-rule="evenodd" clip-rule="evenodd" d="M189.018 105.798L17.7009 38.1453H257.861L429.178 105.798H189.018ZM437 107.285H188.727L9.87927 36.6584H258.153L437 107.285Z" fill="#009688"/>
</svg>
